<?xml version="1.0" standalone="no"?>
<!DOCTYPE svg PUBLIC "-//W3C//DTD SVG 1.1//EN" "http://www.w3.org/Graphics/SVG/1.1/DTD/svg11.dtd"><svg xmlns="http://www.w3.org/2000/svg" style="background-color:#FFF" width="492" height="110"><path stroke="black" fill="none" stroke-width="1" d="M227.9, 99.7L225.744, 97.917L223.925, 95.712L222.444, 93.077L221.3, 90L220.455, 86.436L219.862, 82.338L219.514, 77.695L219.4, 72.5L219.4, 62.6L219.533, 57.373L219.938, 52.662L220.623, 48.495L221.6, 44.9L222.877, 41.767L224.463, 39.113L226.367, 36.927L228.6, 35.2L231.17, 33.872L234.087, 32.9L237.361, 32.303L241, 32.1L244.578, 32.289L247.8, 32.862L250.647, 33.83L253.1, 35.2L255.216, 36.983L257.05, 39.188L258.584, 41.823L259.8, 44.9L260.719, 48.48L261.375, 52.613L261.769, 57.289L261.9, 62.5L261.9, 72.4L261.769, 77.595L261.375, 82.237L260.719, 86.336L259.8, 89.9L258.598, 92.977L257.088, 95.613L255.258, 97.817L253.1, 99.6L250.57, 100.928L247.638, 101.9L244.311, 102.497L240.6, 102.7L236.773, 102.555L233.387, 101.987L230.433, 101.027L227.9, 99.7"/><path stroke="black" fill="none" stroke-width="1" d="M245.2, 89L244.413, 90.444L243.4, 91.475L242.163, 92.094L240.7, 92.3L239.181, 92.094L237.925, 91.475L236.931, 90.444L236.2, 89L235.675, 87.072L235.3, 84.6L235.075, 81.603L235, 78.1L235, 56.8L235.077, 53.384L235.312, 50.475L235.717, 48.053L236.3, 46.1L237.072, 44.598L238.05, 43.537L239.253, 42.908L240.7, 42.7L242.163, 42.908L243.4, 43.537L244.413, 44.598L245.2, 46.1L245.783, 48.011L246.188, 50.438L246.423, 53.37L246.5, 56.8L246.5, 78.1L246.423, 81.603L246.188, 84.6L245.783, 87.072L245.2, 89"/><path stroke="black" fill="none" stroke-width="1" d="M464.4, 72.7L464.4, 76.2L464.42, 79.294L464.487, 81.975L464.611, 84.244L464.8, 86.1L465.064, 87.638L465.413, 88.95L465.855, 90.038L466.4, 90.9L467.092, 91.556L467.963, 92.025L469.002, 92.306L470.2, 92.4L471.792, 92.231L473.113, 91.725L474.152, 90.881L474.9, 89.7L475.484, 88.127L475.9, 86.113L476.166, 83.667L476.3, 80.8L489.6, 81.6L489.688, 82.65L489.7, 84L489.62, 86.288L489.38, 88.425L488.978, 90.413L488.413, 92.25L487.683, 93.938L486.789, 95.475L485.728, 96.862L484.5, 98.1L481.628, 100.142L478.25, 101.613L474.347, 102.502L472.193, 102.725L469.9, 102.8L467.158, 102.688L464.631, 102.352L462.32, 101.793L460.225, 101.013L458.345, 100.012L456.681, 98.792L455.233, 97.354L454, 95.7L452.941, 93.811L452.016, 91.672L451.226, 89.284L450.575, 86.65L450.064, 83.772L449.697, 80.653L449.475, 77.295L449.4, 73.7L449.4, 61.6L449.475, 57.902L449.698, 54.458L450.07, 51.269L450.587, 48.338L451.251, 45.663L452.058, 43.248L453.008, 41.094L454.1, 39.2L455.403, 37.546L456.912, 36.108L458.628, 34.888L460.55, 33.887L462.678, 33.107L465.012, 32.548L467.553, 32.212L470.3, 32.1L474.033, 32.286L477.288, 32.837L480.073, 33.745L482.4, 35L484.35, 36.631L486, 38.675L487.35, 41.131L488.4, 44L489.172, 47.358L489.7, 51.287L490.003, 55.798L490.1, 60.9L490.1, 72.6L464.4, 72.6L464.4, 72.7"/><path stroke="black" fill="none" stroke-width="1" d="M466.4, 43.9L467.019, 43.3L467.825, 42.85L468.819, 42.55L470, 42.4L471.125, 42.492L472.1, 42.763L472.925, 43.202L473.6, 43.8L474.145, 44.606L474.587, 45.675L474.936, 47.006L475.2, 48.6L475.389, 50.514L475.513, 52.813L475.58, 55.505L475.6, 58.6L475.6, 63.5L464.4, 63.5L464.4, 58.6L464.42, 55.448L464.487, 52.737L464.611, 50.458L464.8, 48.6L465.064, 47.078L465.413, 45.8L465.855, 44.747L466.4, 43.9"/><path stroke="black" fill="none" stroke-width="1" d="M190.5, 71.4L173, 8.2L188.3, 8.2L194.4, 36.8L195.509, 41.919L196.45, 46.625L197.241, 50.919L197.9, 54.8L198.3, 54.8L198.52, 53.342L198.805, 51.666L199.153, 49.769L199.563, 47.65L200.033, 45.306L200.564, 42.734L201.153, 39.933L201.8, 36.9L208.1, 8.2L223.4, 8.2L205.7, 71.3L205.7, 101.6L190.6, 101.6L190.6, 71.4L190.5, 71.4"/><path stroke="black" fill="none" stroke-width="1" d="M311.5, 33.4L311.5, 101.7L299.5, 101.7L298.2, 93.3L297.9, 93.3L296.587, 95.517L295.125, 97.442L293.513, 99.074L291.75, 100.413L289.838, 101.455L287.775, 102.202L285.563, 102.65L283.2, 102.8L280.034, 102.519L277.3, 101.675L275.016, 100.269L273.2, 98.3L271.772, 95.748L270.775, 92.588L270.191, 88.808L270, 84.4L270, 33.4L285.4, 33.4L285.4, 83.5L285.458, 85.598L285.638, 87.387L285.948, 88.858L286.4, 90L287, 90.845L287.75, 91.438L288.65, 91.786L289.7, 91.9L291.637, 91.6L293.5, 90.7L295.075, 89.3L296.2, 87.6L296.2, 33.4L311.5, 33.4"/><path stroke="black" fill="none" stroke-width="1" d="M390.4, 33.4L390.4, 101.7L378.4, 101.7L377.1, 93.3L376.8, 93.3L375.487, 95.517L374.025, 97.442L372.412, 99.074L370.65, 100.413L368.738, 101.455L366.675, 102.202L364.463, 102.65L362.1, 102.8L358.934, 102.519L356.2, 101.675L353.916, 100.269L352.1, 98.3L350.672, 95.748L349.675, 92.588L349.091, 88.808L348.9, 84.4L348.9, 33.4L364.3, 33.4L364.3, 83.5L364.358, 85.598L364.537, 87.387L364.848, 88.858L365.3, 90L365.9, 90.845L366.65, 91.438L367.55, 91.786L368.6, 91.9L370.538, 91.6L372.4, 90.7L373.975, 89.3L375.1, 87.6L375.1, 33.4L390.4, 33.4"/><path stroke="black" fill="none" stroke-width="1" d="M353.3, 20.6L338, 20.6L338, 101.7L323, 101.7L323, 20.6L307.7, 20.6L307.7, 8.2L353.2, 8.2L353.2, 20.6L353.3, 20.6"/><path stroke="black" fill="none" stroke-width="1" d="M441.2, 44.3L441.798, 47.842L442.238, 52.012L442.508, 56.802L442.6, 62.2L442.6, 73L442.539, 76.665L442.359, 80.086L442.062, 83.26L441.65, 86.187L441.125, 88.866L440.491, 91.295L439.748, 93.474L438.9, 95.4L437.901, 97.088L436.78, 98.55L435.534, 99.787L434.162, 100.8L432.665, 101.587L431.039, 102.15L429.285, 102.487L427.4, 102.6L425.28, 102.47L423.262, 102.087L421.339, 101.461L419.5, 100.6L417.87, 99.473L416.438, 98.187L415.211, 96.733L414.2, 95.1L413.9, 95.1L412.3, 101.6L399.6, 101.6L399.6, 4.7L414.4, 4.7L414.4, 40.7L414.5, 40.7L415.63, 38.844L416.938, 37.175L418.452, 35.694L420.2, 34.4L422.053, 33.35L424, 32.6L426.022, 32.15L428.1, 32L430.709, 32.186L433, 32.738L434.991, 33.645L436.7, 34.9L438.162, 36.608L439.4, 38.738L440.412, 41.298L441.2, 44.3"/><path stroke="black" fill="none" stroke-width="1" d="M427.1, 72.2L427.063, 75.744L426.95, 78.875L426.762, 81.594L426.5, 83.9L426.144, 85.85L425.675, 87.5L425.094, 88.85L424.4, 89.9L423.594, 90.687L422.675, 91.25L421.644, 91.587L420.5, 91.7L418.675, 91.475L417, 90.8L415.55, 89.675L414.4, 88.1L414.4, 49.3L414.85, 47.948L415.45, 46.738L417.1, 44.7L418.078, 43.913L419.075, 43.35L420.109, 43.013L421.2, 42.9L422.325, 43.013L423.3, 43.35L424.125, 43.913L424.8, 44.7L425.405, 45.767L425.888, 47.163L426.277, 48.877L426.6, 50.9L426.805, 53.302L426.963, 56.163L427.064, 59.492L427.1, 63.3L427.1, 72.2"/></svg>