<svg version="1.1" xmlns="http://www.w3.org/2000/svg" xmlns:xlink="http://www.w3.org/1999/xlink" width="211.90175" height="204.1901" viewBox="0,0,211.90175,204.1901"><g transform="translate(-85.50683,-113.25785)"><g data-paper-data="{&quot;isPaintingLayer&quot;:true}" fill-rule="nonzero" stroke-linejoin="miter" stroke-miterlimit="10" stroke-dasharray="" stroke-dashoffset="0" style="mix-blend-mode: normal"><path d="M187.16284,207.99142l22.03357,-83.13695l88.21218,23.37864l-1.78188,87.63733z" fill="#43a845" stroke="none" stroke-width="none" stroke-linecap="butt"/><path d="M189.90827,220.35578l1.30968,-5.8375l17.26926,3.87449l-1.30969,5.8375z" fill="#969696" stroke="none" stroke-width="0" stroke-linecap="butt"/><path d="M218.09088,226.85144l1.30969,-5.8375l17.26926,3.87449l-1.30969,5.8375z" fill="#969696" stroke="none" stroke-width="0" stroke-linecap="butt"/><path d="M247.2706,233.84564l1.30969,-5.83749l17.26926,3.87449l-1.30969,5.83749z" fill="#969696" stroke="none" stroke-width="0" stroke-linecap="butt"/><path d="M274.20684,239.59347l1.30969,-5.8375l17.26926,3.87449l-1.30969,5.8375z" fill="#969696" stroke="none" stroke-width="0" stroke-linecap="butt"/><path d="M296.04818,234.03524l-20.96546,83.41271l-88.50477,-22.24532l0.65772,-87.65298z" fill="#b77900" stroke="none" stroke-width="none" stroke-linecap="butt"/><path d="M257.92353,252.68996l-8.88709,35.35797l-37.51646,-9.42962l0.27881,-37.15539z" fill="#ffffff" stroke="none" stroke-width="none" stroke-linecap="butt"/><path d="M241.68471,262.23517c0,4.95616 -5.76269,9.97102 -10.71884,9.97102c-4.95615,0 -9.72174,-4.01776 -9.72174,-8.97392c0,-4.95616 6.51051,-9.97101 11.46667,-9.97101c4.95615,0 8.97392,4.01776 8.97392,8.97392z" fill="none" stroke="#000000" stroke-width="1" stroke-linecap="butt"/><path d="M226.52743,271.08362l-2.84364,10.38029" fill="none" stroke="#000000" stroke-width="1" stroke-linecap="round"/><path d="M230.07211,267.21917c0,0.24791 -1.31849,0.26933 -1.61598,0.26933c-0.29749,0 -0.53866,-0.20097 -0.53866,-0.44888c0,-0.24791 -0.47705,-0.68829 -0.17955,-0.68829c0.29749,0 2.33419,0.61993 2.33419,0.86784z" fill="#ff5d5d" stroke="none" stroke-width="0" stroke-linecap="butt"/><path d="M231.46442,259.99169c0,0.96369 -0.94864,1.74493 -2.11884,1.74493c-1.17021,0 -2.11884,-0.78123 -2.11884,-1.74493c0,-0.96369 0.94863,-1.74493 2.11884,-1.74493c1.17021,0 2.11884,0.78123 2.11884,1.74493z" fill="#000000" stroke="none" stroke-width="0" stroke-linecap="butt"/><path d="M238.11527,263.0657c0,0.96369 -0.94864,1.74493 -2.11884,1.74493c-1.17021,0 -2.11884,-0.78124 -2.11884,-1.74493c0,-0.96369 0.94863,-1.74492 2.11884,-1.74492c1.17021,0 2.11884,0.78123 2.11884,1.74492z" fill="#000000" stroke="none" stroke-width="0" stroke-linecap="butt"/><path d="M229.93742,259.87975c0,0.28202 -0.22862,0.51065 -0.51065,0.51065c-0.28203,0 -0.51065,-0.22863 -0.51065,-0.51065c0,-0.28202 0.22862,-0.51065 0.51065,-0.51065c0.28203,0 0.51065,0.22862 0.51065,0.51065z" fill="#ffffff" stroke="none" stroke-width="0" stroke-linecap="butt"/><path d="M236.83963,263.13943c0,0.28202 -0.22862,0.51065 -0.51065,0.51065c-0.28203,0 -0.51065,-0.22863 -0.51065,-0.51065c0,-0.28202 0.22862,-0.51065 0.51065,-0.51065c0.28203,0 0.51065,0.22862 0.51065,0.51065z" fill="#ffffff" stroke="none" stroke-width="0" stroke-linecap="butt"/><path d="M227.55836,263.65803c0,0 0.4988,1.87558 1.34745,2.33762c0.93794,0.51065 4.03916,0.29583 4.03916,0.29583" fill="none" stroke="#000000" stroke-width="0.5" stroke-linecap="round"/><path d="M227.53085,263.69038c0,0 -0.21941,3.25215 0.62924,3.71419c0.93794,0.51065 4.75737,-1.08074 4.75737,-1.08074" fill="none" stroke="#000000" stroke-width="0.5" stroke-linecap="round"/><path d="M225.38997,274.75714c0,0 -6.41767,-4.71253 -6.84669,-7.27264c-0.55296,-3.26165 -0.5863,-6.91248 -0.5863,-6.91248" fill="none" stroke="#000000" stroke-width="1" stroke-linecap="round"/><path d="M225.2771,274.57277l3.06777,8.14139" fill="none" stroke="#000000" stroke-width="1" stroke-linecap="round"/><path d="M189.13386,208.87572l-2.15424,86.65587l-33.4195,-90.21285l11.85247,-55.40579l43.89145,-24.57476z" fill="#6d6962" stroke="none" stroke-width="none" stroke-linecap="butt"/><path d="M153.95768,205.77296l32.95772,89.35679l-70.89476,-89.2l32.44699,-61.48286l59.08413,-18.16007l-40.91672,23.23173z" fill="#57544e" stroke="none" stroke-width="none" stroke-linecap="butt"/><path d="M116.7558,206.38396l70.43299,88.68156l-75.62137,-22.68984l-9.33864,-69.41954l34.69572,-66.33863l71.9135,-10.39493l-60.16078,18.84273z" fill="#32302d" stroke="none" stroke-width="none" stroke-linecap="butt"/><path d="M102.51174,202.60597l9.66228,70.11273l-26.66719,-9.18524l10.91826,-60.97916l16.80212,-89.29645l96.22178,12.90051l-70.96446,11.07759z" fill="#000000" stroke="none" stroke-width="none" stroke-linecap="butt"/></g></g></svg>